<svg width="900mm" height="900mm" version="1.1" viewBox="0 0 900 900" xmlns="http://www.w3.org/2000/svg"><defs><pattern id="l" width="2" height="1" patternTransform="translate(0) scale(9.94) rotate(45)" patternUnits="userSpaceOnUse"><rect y="-.5" width="1" height="2" fill="gray"/></pattern><pattern id="k" width="2" height="1" patternTransform="translate(7 7) scale(9.94) rotate(45)" patternUnits="userSpaceOnUse"><rect y="-.5" width="1" height="2"/></pattern><pattern id="j" width="2" height="1" patternTransform="translate(0) scale(9.94) rotate(45)" patternUnits="userSpaceOnUse"><rect y="-.5" width="1" height="2" fill="#003049"/></pattern><pattern id="i" width="2" height="1" patternTransform="translate(7 7) scale(9.94) rotate(45)" patternUnits="userSpaceOnUse"><rect y="-.5" width="1" height="2" fill="#003049"/></pattern><pattern id="h" width="2" height="1" patternTransform="translate(0) scale(9.94) rotate(45)" patternUnits="userSpaceOnUse"><rect y="-.5" width="1" height="2" fill="#417b5a"/></pattern><pattern id="g" width="2" height="1" patternTransform="translate(7 7) scale(9.94) rotate(45)" patternUnits="userSpaceOnUse"><rect y="-.5" width="1" height="2" fill="#417b5a"/></pattern><pattern id="b" width="2" height="1" patternTransform="translate(0) scale(9.94) rotate(45)" patternUnits="userSpaceOnUse"><rect y="-.5" width="1" height="2" fill="#f2f3ae"/></pattern><pattern id="a" width="2" height="1" patternTransform="translate(7 7) scale(9.94) rotate(45)" patternUnits="userSpaceOnUse"><rect y="-.5" width="1" height="2" fill="#f2f3ae"/></pattern><pattern id="f" width="2" height="1" patternTransform="translate(0) scale(9.94) rotate(45)" patternUnits="userSpaceOnUse"><rect y="-.5" width="1" height="2" fill="#fcbf49"/></pattern><pattern id="e" width="2" height="1" patternTransform="translate(7 7) scale(9.94) rotate(45)" patternUnits="userSpaceOnUse"><rect y="-.5" width="1" height="2" fill="#fcbf49"/></pattern><pattern id="d" width="2" height="1" patternTransform="translate(0) scale(9.94) rotate(45)" patternUnits="userSpaceOnUse"><rect y="-.5" width="1" height="2" fill="#bb4430"/></pattern><pattern id="c" width="2" height="1" patternTransform="translate(7 7) scale(9.94) rotate(45)" patternUnits="userSpaceOnUse"><rect y="-.5" width="1" height="2" fill="#bb4430"/></pattern></defs><g><rect width="900" height="900" fill="url(#l)" stroke-width="0"/></g><g><rect width="900" height="900" fill="url(#k)" stroke-width="0"/></g><g stroke-width="0"><rect width="900" height="900" fill="url(#j)"/><rect width="900" height="900" fill="url(#i)"/></g><g stroke-width="0"><rect x="95" width="710" height="900" fill="url(#h)"/><rect y="95" width="900" height="710" fill="url(#g)"/></g><g stroke-width="0"><rect x="140" width="620" height="900" fill="url(#b)"/><rect y="140" width="900" height="620" fill="url(#a)"/></g><g stroke-width="0"><rect x="265" width="370" height="900" fill="url(#f)"/><rect y="265" width="900" height="370" fill="url(#e)"/></g><g stroke-width="0"><rect x="425" width="50" height="900" fill="url(#d)"/><rect y="425" width="900" height="50" fill="url(#c)"/></g></svg>
